<svg viewBox="0 0 456.1 126.32" xmlns="http://www.w3.org/2000/svg"><path d="m7.41 81.15-4.92 4.38a3.41 3.41 0 0 0 -1.07 2.11 6.44 6.44 0 0 0 .36 2.86 12.62 12.62 0 0 0 1.68 3.25 18.53 18.53 0 0 0 2.88 3.25l14.57 13.1z" fill="#2fbdee"/><path d="m8.33 42.5-5.47 1.62a3.39 3.39 0 0 0 -1.93 1.48 6.29 6.29 0 0 0 -.88 2.77 12.45 12.45 0 0 0 .23 3.68 19.12 19.12 0 0 0 1.4 4.17l14.59 31.28z" fill="#313037"/><path d="m58.55 118.77a2.24 2.24 0 0 1 -1.38-.18 3.06 3.06 0 0 1 -1.13-1 5.13 5.13 0 0 1 -.77-1.63 7.77 7.77 0 0 1 -.28-2.12 8.78 8.78 0 0 1 .28-2.2 7.06 7.06 0 0 1 .77-1.88 4.92 4.92 0 0 1 1.13-1.35 2.88 2.88 0 0 1 1.38-.63 2.2 2.2 0 0 1 1.36.24 3.06 3.06 0 0 1 1.1 1 5 5 0 0 1 .74 1.62 7.44 7.44 0 0 1 .27 2.06 8.47 8.47 0 0 1 -.27 2.16 7 7 0 0 1 -.74 1.85 5.06 5.06 0 0 1 -1.1 1.37 3 3 0 0 1 -1.36.67m-20.92-10.34a3.35 3.35 0 0 1 -2.32-.57 6.22 6.22 0 0 1 -1.92-2.14 12.63 12.63 0 0 1 -1.31-3.41 18.89 18.89 0 0 1 -.48-4.29v-67a18.71 18.71 0 0 1 .48-4.31 12.21 12.21 0 0 1 1.31-3.37 6 6 0 0 1 1.92-2.09 3.25 3.25 0 0 1 2.32-.49l39.07 6.38a3.12 3.12 0 0 1 1.72 1 8.07 8.07 0 0 1 1.38 2.25 14.87 14.87 0 0 1 .93 3.14 19.8 19.8 0 0 1 .34 3.7v56a19.69 19.69 0 0 1 -.34 3.69 14.24 14.24 0 0 1 -.93 3.1 7.54 7.54 0 0 1 -1.38 2.21 3 3 0 0 1 -1.72 1l-39.07 5.24m40.75-88-46.38-8.9a3.45 3.45 0 0 0 -2.41.43 6 6 0 0 0 -2 2.07 11.89 11.89 0 0 0 -1.36 3.4 18.68 18.68 0 0 0 -.5 4.38v94.17a18.68 18.68 0 0 0 .5 4.38 12 12 0 0 0 1.36 3.4 6.1 6.1 0 0 0 2 2.07 3.45 3.45 0 0 0 2.41.43l46.34-8.85a3.13 3.13 0 0 0 1.7-1.06 8.18 8.18 0 0 0 1.36-2.27 15.68 15.68 0 0 0 .92-3.14 20.76 20.76 0 0 0 .33-3.69v-76.71a20.67 20.67 0 0 0 -.33-3.69 15.49 15.49 0 0 0 -.92-3.14 8 8 0 0 0 -1.36-2.27 3.07 3.07 0 0 0 -1.7-1.06" fill="#313037"/><path d="m20.36 21a33.31 33.31 0 0 1 1-8.15 21.57 21.57 0 0 1 2.56-6.27 10.6 10.6 0 0 1 3.68-3.73 6.18 6.18 0 0 1 4.4-.66l33.88 7.51a20.48 20.48 0 0 0 -.88-3.35 15.69 15.69 0 0 0 -1.45-2.93 7.94 7.94 0 0 0 -1.74-2 3.14 3.14 0 0 0 -1.89-.76l-47.22-.66a3.45 3.45 0 0 0 -2.3.84 5.91 5.91 0 0 0 -1.6 2.39 12 12 0 0 0 -.75 3.58 18.21 18.21 0 0 0 .27 4.4l12 68.31z" fill="#2fbdee"/><path d="m58.55 107.8a2.88 2.88 0 0 0 -1.38.63 4.92 4.92 0 0 0 -1.17 1.35 7.06 7.06 0 0 0 -.77 1.88 8.78 8.78 0 0 0 -.28 2.2 7.77 7.77 0 0 0 .28 2.12 5.13 5.13 0 0 0 .77 1.63 3.06 3.06 0 0 0 1.13 1 2.24 2.24 0 0 0 1.38.18 3 3 0 0 0 1.36-.67 5.06 5.06 0 0 0 1.1-1.37 7 7 0 0 0 .74-1.85 8.47 8.47 0 0 0 .27-2.16 7.44 7.44 0 0 0 -.27-2.06 5 5 0 0 0 -.71-1.68 3.06 3.06 0 0 0 -1.1-1 2.2 2.2 0 0 0 -1.36-.24" fill="#fff"/><path d="m36 101.46a.63.63 0 0 1 -.39-.11 1.12 1.12 0 0 1 -.31-.36 2.12 2.12 0 0 1 -.22-.57 3.08 3.08 0 0 1 -.08-.71v-11.51a3.4 3.4 0 0 1 .08-.73 2.49 2.49 0 0 1 .22-.6 1.58 1.58 0 0 1 .31-.42.71.71 0 0 1 .39-.17l8.1-.47a.54.54 0 0 1 .36.12.94.94 0 0 1 .3.37 1.68 1.68 0 0 1 .2.56 3 3 0 0 1 .08.69v11.12a3.22 3.22 0 0 1 -.08.71 2 2 0 0 1 -.2.59 1.33 1.33 0 0 1 -.3.42.69.69 0 0 1 -.36.18zm12.13-1.34a.46.46 0 0 1 -.35-.1 1 1 0 0 1 -.3-.35 1.9 1.9 0 0 1 -.19-.54 3 3 0 0 1 -.08-.68v-11a3.13 3.13 0 0 1 .08-.7 2.32 2.32 0 0 1 .19-.58 1.61 1.61 0 0 1 .3-.4.65.65 0 0 1 .35-.16l7.46-.43a.5.5 0 0 1 .34.11 1.06 1.06 0 0 1 .27.36 2.35 2.35 0 0 1 .19.53 3.55 3.55 0 0 1 .06.67v10.64a3.66 3.66 0 0 1 -.06.68 2.62 2.62 0 0 1 -.19.56 1.4 1.4 0 0 1 -.27.4.67.67 0 0 1 -.34.18zm11.1-1.21a.5.5 0 0 1 -.33-.1 1 1 0 0 1 -.27-.34 2.1 2.1 0 0 1 -.19-.52 3.37 3.37 0 0 1 -.06-.66v-10.61a3.63 3.63 0 0 1 .06-.67 2.73 2.73 0 0 1 .19-.55 1.12 1.12 0 0 1 .27-.38.52.52 0 0 1 .33-.16l6.89-.4a.42.42 0 0 1 .31.11 1 1 0 0 1 .25.34 1.87 1.87 0 0 1 .18.52 3.16 3.16 0 0 1 .06.64v10.28a3.49 3.49 0 0 1 -.06.65 2.14 2.14 0 0 1 -.18.54 1.25 1.25 0 0 1 -.25.39.55.55 0 0 1 -.31.16zm9.94-1.09a.46.46 0 0 1 -.31-.1.89.89 0 0 1 -.25-.33 2.09 2.09 0 0 1 -.17-.5 3.16 3.16 0 0 1 -.06-.64v-10.25a3.31 3.31 0 0 1 .06-.64 2.36 2.36 0 0 1 .17-.53 1.2 1.2 0 0 1 .25-.37.53.53 0 0 1 .31-.15l6.4-.37a.38.38 0 0 1 .29.1 1.08 1.08 0 0 1 .24.33 2.1 2.1 0 0 1 .16.5 3 3 0 0 1 .06.62v9.91a3.13 3.13 0 0 1 -.06.63 2.54 2.54 0 0 1 -.16.53 1.25 1.25 0 0 1 -.24.36.41.41 0 0 1 -.29.16l-6.4.71m-33.17-14.79a.65.65 0 0 1 -.39-.13 1.35 1.35 0 0 1 -.31-.38 2.19 2.19 0 0 1 -.3-.59 3.24 3.24 0 0 1 -.08-.72v-11.51a3.24 3.24 0 0 1 .08-.67 2.41 2.41 0 0 1 .22-.59 1.46 1.46 0 0 1 .31-.4.67.67 0 0 1 .39-.14h8.1a.56.56 0 0 1 .36.14 1 1 0 0 1 .3.39 1.82 1.82 0 0 1 .2.57 3 3 0 0 1 .08.69v11.11a3.13 3.13 0 0 1 -.08.7 2 2 0 0 1 -.2.58 1.1 1.1 0 0 1 -.3.39.54.54 0 0 1 -.36.16zm12.13-.58a.53.53 0 0 1 -.35-.12 1.27 1.27 0 0 1 -.3-.37 2 2 0 0 1 -.19-.55 3 3 0 0 1 -.08-.69v-11a3 3 0 0 1 .08-.69 2.12 2.12 0 0 1 .19-.57 1.33 1.33 0 0 1 .3-.38.56.56 0 0 1 .35-.14h7.46a.53.53 0 0 1 .34.14 1.22 1.22 0 0 1 .27.37 2.44 2.44 0 0 1 .19.54 3.63 3.63 0 0 1 .06.67v10.67a3.63 3.63 0 0 1 -.06.67 2.35 2.35 0 0 1 -.19.55 1.49 1.49 0 0 1 -.27.39.61.61 0 0 1 -.34.15l-7.46.35m11.1-.53a.46.46 0 0 1 -.33-.11 1 1 0 0 1 -.27-.36 2.35 2.35 0 0 1 -.19-.53 3.45 3.45 0 0 1 -.06-.66v-10.61a3.55 3.55 0 0 1 .06-.67 2.63 2.63 0 0 1 .19-.54 1 1 0 0 1 .27-.36.49.49 0 0 1 .33-.14h6.89a.5.5 0 0 1 .31.13 1.1 1.1 0 0 1 .25.36 2 2 0 0 1 .18.52 3.34 3.34 0 0 1 .06.65v10.31a3.31 3.31 0 0 1 -.06.64 2.14 2.14 0 0 1 -.18.54 1.1 1.1 0 0 1 -.25.36.53.53 0 0 1 -.31.15zm-23.23-17.36a.6.6 0 0 1 -.39-.15 1.2 1.2 0 0 1 -.32-.4 2.41 2.41 0 0 1 -.21-.59 3.4 3.4 0 0 1 -.08-.73v-11.51a3.15 3.15 0 0 1 .08-.71 2.19 2.19 0 0 1 .21-.58 1.22 1.22 0 0 1 .32-.38.62.62 0 0 1 .39-.12l8.09.54a.56.56 0 0 1 .37.16 1.5 1.5 0 0 1 .3.41 2.62 2.62 0 0 1 .2.58 3.86 3.86 0 0 1 .07.7v11.12a3.77 3.77 0 0 1 -.07.7 2.71 2.71 0 0 1 -.2.57 1.33 1.33 0 0 1 -.3.38.58.58 0 0 1 -.37.13zm12.1.18a.56.56 0 0 1 -.35-.14 1.54 1.54 0 0 1 -.3-.39 2.12 2.12 0 0 1 -.19-.57 3 3 0 0 1 -.08-.69v-11a3 3 0 0 1 .08-.69 2 2 0 0 1 .19-.55 1.11 1.11 0 0 1 .3-.36.48.48 0 0 1 .35-.12l7.46.49a.63.63 0 0 1 .34.16 1.34 1.34 0 0 1 .27.39 2.62 2.62 0 0 1 .19.56 3.55 3.55 0 0 1 .06.67v10.64a3.48 3.48 0 0 1 -.06.67 2.53 2.53 0 0 1 -.19.55 1.17 1.17 0 0 1 -.27.36.52.52 0 0 1 -.34.13zm-12.1-18.64a.7.7 0 0 1 -.39-.18 1.41 1.41 0 0 1 -.32-.42 2.42 2.42 0 0 1 -.21-.61 3.31 3.31 0 0 1 -.08-.72v-11.51a3.24 3.24 0 0 1 .08-.72 2.17 2.17 0 0 1 .21-.56 1.13 1.13 0 0 1 .32-.36.6.6 0 0 1 .39-.09l8.09 1a.65.65 0 0 1 .37.18 1.63 1.63 0 0 1 .3.43 2.91 2.91 0 0 1 .2.59 4 4 0 0 1 .07.71v11.2a3.66 3.66 0 0 1 -.07.69 2.62 2.62 0 0 1 -.2.56 1.37 1.37 0 0 1 -.3.36.56.56 0 0 1 -.37.11zm40.7-18.94-39.07-6.38a3.25 3.25 0 0 0 -2.32.49 6 6 0 0 0 -1.92 2.09 12.21 12.21 0 0 0 -1.31 3.37 18.71 18.71 0 0 0 -.48 4.31v67a18.89 18.89 0 0 0 .48 4.33 12.63 12.63 0 0 0 1.31 3.41 6.22 6.22 0 0 0 1.92 2.14 3.35 3.35 0 0 0 2.32.57l39.07-5.24a3 3 0 0 0 1.72-1 7.54 7.54 0 0 0 1.38-2.21 14.24 14.24 0 0 0 .93-3.11 19.69 19.69 0 0 0 .34-3.69v-56a19.8 19.8 0 0 0 -.34-3.7 14.87 14.87 0 0 0 -.93-3.14 8.07 8.07 0 0 0 -1.38-2.25 3.12 3.12 0 0 0 -1.72-1" fill="#fff"/><path d="m44.07 31.93-8.09-1a.6.6 0 0 0 -.39.09 1.13 1.13 0 0 0 -.32.36 2.17 2.17 0 0 0 -.21.56 3.24 3.24 0 0 0 -.08.72v11.47a3.31 3.31 0 0 0 .08.72 2.42 2.42 0 0 0 .21.61 1.41 1.41 0 0 0 .32.42.7.7 0 0 0 .39.18l8.09.62a.56.56 0 0 0 .37-.11 1.37 1.37 0 0 0 .3-.36 2.62 2.62 0 0 0 .2-.56 3.66 3.66 0 0 0 .06-.65v-11.16a4 4 0 0 0 -.07-.71 2.91 2.91 0 0 0 -.2-.59 1.63 1.63 0 0 0 -.3-.43.65.65 0 0 0 -.37-.18" fill="#f15535"/><path d="m44.07 49.89-8.07-.54a.62.62 0 0 0 -.39.12 1.22 1.22 0 0 0 -.32.38 2.19 2.19 0 0 0 -.21.58 3.15 3.15 0 0 0 -.08.71v11.51a3.4 3.4 0 0 0 .08.73 2.41 2.41 0 0 0 .21.59 1.2 1.2 0 0 0 .32.4.6.6 0 0 0 .39.15l8.09.12a.58.58 0 0 0 .37-.13 1.33 1.33 0 0 0 .3-.38 2.71 2.71 0 0 0 .2-.57 3.77 3.77 0 0 0 .07-.7v-11.12a3.86 3.86 0 0 0 -.07-.7 2.62 2.62 0 0 0 -.2-.58 1.5 1.5 0 0 0 -.3-.41.56.56 0 0 0 -.37-.16" fill="#f15535"/><path d="m55.54 50.64-7.46-.49a.48.48 0 0 0 -.35.12 1.11 1.11 0 0 0 -.3.36 2 2 0 0 0 -.19.55 3 3 0 0 0 -.08.69v11a3 3 0 0 0 .08.69 2.12 2.12 0 0 0 .19.57 1.54 1.54 0 0 0 .3.39.56.56 0 0 0 .35.14l7.46.11a.52.52 0 0 0 .34-.13 1.17 1.17 0 0 0 .27-.36 2.53 2.53 0 0 0 .19-.55 3.48 3.48 0 0 0 .06-.67v-10.64a3.55 3.55 0 0 0 -.06-.67 2.62 2.62 0 0 0 -.19-.56 1.34 1.34 0 0 0 -.27-.39.63.63 0 0 0 -.34-.16" fill="#f15535"/><path d="m44.05 67.85h-8.1a.67.67 0 0 0 -.39.14 1.46 1.46 0 0 0 -.31.4 2.41 2.41 0 0 0 -.25.61 3.24 3.24 0 0 0 -.08.72v11.46a3.24 3.24 0 0 0 .08.72 2.19 2.19 0 0 0 .22.58 1.35 1.35 0 0 0 .31.38.65.65 0 0 0 .47.14l8.1-.39a.54.54 0 0 0 .36-.16 1.1 1.1 0 0 0 .3-.39 2 2 0 0 0 .2-.58 3.13 3.13 0 0 0 .08-.7v-11.14a3 3 0 0 0 -.08-.69 1.82 1.82 0 0 0 -.2-.57 1 1 0 0 0 -.3-.39.56.56 0 0 0 -.36-.14" fill="#f15535"/><path d="m55.54 67.89h-7.46a.56.56 0 0 0 -.35.14 1.33 1.33 0 0 0 -.3.38 2.12 2.12 0 0 0 -.19.57 3 3 0 0 0 -.08.69v11a3 3 0 0 0 .08.69 2 2 0 0 0 .19.55 1.27 1.27 0 0 0 .3.37.53.53 0 0 0 .35.12l7.46-.35a.61.61 0 0 0 .34-.15 1.49 1.49 0 0 0 .27-.39 2.35 2.35 0 0 0 .19-.55 3.63 3.63 0 0 0 .06-.67v-10.68a3.63 3.63 0 0 0 -.06-.67 2.44 2.44 0 0 0 -.19-.54 1.22 1.22 0 0 0 -.27-.37.53.53 0 0 0 -.34-.14" fill="#f15535"/><path d="m66.07 67.93h-6.89a.49.49 0 0 0 -.33.14 1 1 0 0 0 -.27.36 2.63 2.63 0 0 0 -.19.54 3.55 3.55 0 0 0 -.06.67v10.58a3.45 3.45 0 0 0 .06.66 2.35 2.35 0 0 0 .19.53 1 1 0 0 0 .27.36.46.46 0 0 0 .33.11l6.89-.32a.53.53 0 0 0 .31-.15 1.1 1.1 0 0 0 .25-.36 2.14 2.14 0 0 0 .18-.54 3.31 3.31 0 0 0 .06-.64v-10.28a3.34 3.34 0 0 0 -.06-.65 2 2 0 0 0 -.18-.52 1.1 1.1 0 0 0 -.25-.36.5.5 0 0 0 -.31-.13" fill="#f15535"/><path d="m44.05 85.81-8.1.47a.71.71 0 0 0 -.39.17 1.58 1.58 0 0 0 -.31.42 2.49 2.49 0 0 0 -.22.6 3.4 3.4 0 0 0 -.08.73v11.51a3.08 3.08 0 0 0 .08.71 2.12 2.12 0 0 0 .22.57 1.12 1.12 0 0 0 .31.36.63.63 0 0 0 .39.11l8.1-.89a.69.69 0 0 0 .36-.18 1.33 1.33 0 0 0 .3-.42 2 2 0 0 0 .2-.59 3.22 3.22 0 0 0 .08-.71v-11.12a3 3 0 0 0 -.08-.69 1.68 1.68 0 0 0 -.2-.56.94.94 0 0 0 -.3-.37.54.54 0 0 0 -.36-.12" fill="#f15535"/><path d="m55.54 85.14-7.46.43a.65.65 0 0 0 -.35.16 1.61 1.61 0 0 0 -.3.4 2.32 2.32 0 0 0 -.19.58 3.13 3.13 0 0 0 -.08.7v11a3 3 0 0 0 .08.68 1.9 1.9 0 0 0 .19.54 1 1 0 0 0 .3.35.46.46 0 0 0 .35.1l7.46-.81a.67.67 0 0 0 .34-.18 1.4 1.4 0 0 0 .27-.4 2.62 2.62 0 0 0 .19-.56 3.66 3.66 0 0 0 .06-.68v-10.64a3.55 3.55 0 0 0 -.06-.67 2.35 2.35 0 0 0 -.19-.53 1.06 1.06 0 0 0 -.27-.36.5.5 0 0 0 -.34-.11" fill="#f15535"/><path d="m66.07 84.52-6.89.4a.52.52 0 0 0 -.33.16 1.12 1.12 0 0 0 -.27.38 2.73 2.73 0 0 0 -.19.55 3.63 3.63 0 0 0 -.06.67v10.61a3.37 3.37 0 0 0 .06.66 2.1 2.1 0 0 0 .19.52 1 1 0 0 0 .27.34.5.5 0 0 0 .33.1l6.89-.76a.55.55 0 0 0 .31-.16 1.25 1.25 0 0 0 .25-.39 2.14 2.14 0 0 0 .18-.54 3.49 3.49 0 0 0 .06-.65v-10.28a3.16 3.16 0 0 0 -.06-.64 1.87 1.87 0 0 0 -.18-.52 1 1 0 0 0 -.25-.34.42.42 0 0 0 -.31-.11" fill="#f15535"/><path d="m75.52 84-6.4.37a.53.53 0 0 0 -.31.15 1.2 1.2 0 0 0 -.25.37 2.36 2.36 0 0 0 -.17.53 3.31 3.31 0 0 0 -.06.64v10.19a3.16 3.16 0 0 0 .06.64 2.09 2.09 0 0 0 .17.5.89.89 0 0 0 .25.33.46.46 0 0 0 .31.1l6.4-.71a.41.41 0 0 0 .29-.16 1.25 1.25 0 0 0 .24-.36 2.54 2.54 0 0 0 .16-.53 3.13 3.13 0 0 0 .06-.63v-9.91a3 3 0 0 0 -.06-.62 2.1 2.1 0 0 0 -.16-.5 1.08 1.08 0 0 0 -.24-.33.38.38 0 0 0 -.29-.1" fill="#f15535"/><g fill="#313037"><path d="m108.35 27.29h9.45l8.83 24.15h.15l8.73-24.15h9.49v34h-6v-27.29h-.1l-10.3 27.28h-4.22l-10.18-27.28h-.1v27.28h-5.75z"/><path d="m149.91 44.19a19.05 19.05 0 0 1 1.37-7.37 16.28 16.28 0 0 1 3.79-5.59 16.77 16.77 0 0 1 5.76-3.55 20.67 20.67 0 0 1 7.27-1.25 21 21 0 0 1 7.35 1.25 17 17 0 0 1 5.81 3.55 16.05 16.05 0 0 1 3.81 5.59 19.05 19.05 0 0 1 1.37 7.37 18.76 18.76 0 0 1 -1.37 7.27 16.86 16.86 0 0 1 -3.81 5.67 17.47 17.47 0 0 1 -5.81 3.69 19.93 19.93 0 0 1 -7.35 1.32 19.62 19.62 0 0 1 -7.27-1.32 16.7 16.7 0 0 1 -9.55-9.36 18.76 18.76 0 0 1 -1.37-7.27zm6.58 0a14.45 14.45 0 0 0 .84 5 11.68 11.68 0 0 0 2.4 4 11 11 0 0 0 3.69 2.61 11.58 11.58 0 0 0 4.73.94 11.71 11.71 0 0 0 4.75-.94 10.89 10.89 0 0 0 3.72-2.61 11.68 11.68 0 0 0 2.4-4 14.45 14.45 0 0 0 .84-5 14 14 0 0 0 -.84-4.9 12 12 0 0 0 -2.37-3.93 11.07 11.07 0 0 0 -3.7-2.64 11.69 11.69 0 0 0 -4.8-1 11.48 11.48 0 0 0 -4.77 1 11.09 11.09 0 0 0 -3.68 2.64 12 12 0 0 0 -2.37 3.93 14 14 0 0 0 -.84 4.9z"/><path d="m191.34 27.29h13.24a16.26 16.26 0 0 1 3.8.46 9.6 9.6 0 0 1 3.33 1.49 7.65 7.65 0 0 1 3.29 6.6 7 7 0 0 1 -1.63 4.75 9.11 9.11 0 0 1 -4.27 2.69v.09a8.92 8.92 0 0 1 5.28 2.5 7.49 7.49 0 0 1 2.06 5.52 9.21 9.21 0 0 1 -1.1 4.68 9 9 0 0 1 -2.91 3 12.25 12.25 0 0 1 -4.13 1.65 21.94 21.94 0 0 1 -4.72.51h-12.24zm6 13.83h5.38a7.54 7.54 0 0 0 4.61-1.2 4 4 0 0 0 1.67-3.41 3.46 3.46 0 0 0 -1.63-3.26 10.37 10.37 0 0 0 -5.09-1h-4.85zm0 15.07h5.43a20.43 20.43 0 0 0 2.53-.19 8.27 8.27 0 0 0 2.48-.69 5 5 0 0 0 1.87-1.54 4.47 4.47 0 0 0 .74-2.69 4 4 0 0 0 -1.82-3.74 11.26 11.26 0 0 0 -5.52-1.06h-5.67z"/><path d="m221.43 27.29h6v34h-6z"/><path d="m234 27.29h6.05v28.61h14.45v5.38h-20.5z"/><path d="m257.58 27.29h22.51v5.28h-16.47v8.64h15.6v5.09h-15.6v9.6h17.38v5.38h-23.42z"/><path d="m296.94 27.29h8l15.79 25.44h.1v-25.44h6.05v34h-7.68l-16.12-26.29h-.08v26.28h-6z"/><path d="m344.07 27.29h5.23l14.64 34h-6.94l-3.17-7.78h-14.7l-3.07 7.78h-6.77zm7.68 21-5.23-13.83-5.33 13.83z"/><path d="m370.33 32.57h-10.42v-5.28h26.88v5.28h-10.41v28.71h-6.05z"/><path d="m389.77 27.29h6.05v34h-6.05z"/><path d="m398.12 27.29h6.77l9.36 26.16h.19l9.46-26.16h6.52l-13.63 34h-5.23z"/><path d="m432.73 27.29h22.51v5.28h-16.46v8.64h15.59v5.09h-15.59v9.6h17.32v5.38h-23.37z"/><path d="m110 82.38v13.06h14.91v.84h-14.91v15h-.93v-29.74h17v.84z"/><path d="m160.88 96.41a16.8 16.8 0 0 1 -1.15 6.32 15 15 0 0 1 -3.2 5 14.47 14.47 0 0 1 -4.85 3.25 16.31 16.31 0 0 1 -12.18 0 14.67 14.67 0 0 1 -4.85-3.25 15 15 0 0 1 -3.19-5 17.94 17.94 0 0 1 0-12.64 15 15 0 0 1 3.19-5 14.68 14.68 0 0 1 4.83-3.25 16.41 16.41 0 0 1 12.22 0 14.48 14.48 0 0 1 4.83 3.25 15 15 0 0 1 3.2 5 16.8 16.8 0 0 1 1.15 6.32zm-.92 0a16 16 0 0 0 -1.05-5.82 14.36 14.36 0 0 0 -3-4.72 13.84 13.84 0 0 0 -4.56-3.17 15.06 15.06 0 0 0 -11.59 0 13.64 13.64 0 0 0 -4.56 3.17 14.36 14.36 0 0 0 -3 4.72 16 16 0 0 0 -1.05 5.82 16.2 16.2 0 0 0 1 5.82 14.1 14.1 0 0 0 2.92 4.72 13.52 13.52 0 0 0 4.53 3.17 15.48 15.48 0 0 0 11.76 0 13.46 13.46 0 0 0 4.64-3.12 14.26 14.26 0 0 0 2.92-4.72 16.42 16.42 0 0 0 1.08-5.87z"/><path d="m189.19 104.75a10.08 10.08 0 0 1 -1.93 3.84 9.28 9.28 0 0 1 -3.51 2.58 15.34 15.34 0 0 1 -10.63 0 9.17 9.17 0 0 1 -3.5-2.58 10.1 10.1 0 0 1 -1.94-3.84 18.41 18.41 0 0 1 -.58-4.73v-18.48h.9v18.31a21.19 21.19 0 0 0 .36 3.76 9.91 9.91 0 0 0 1.47 3.7 8.69 8.69 0 0 0 3.15 2.83 11.14 11.14 0 0 0 5.44 1.14 11.42 11.42 0 0 0 5.35-1.09 8.51 8.51 0 0 0 3.17-2.8 9.78 9.78 0 0 0 1.51-3.69 20 20 0 0 0 .38-3.85v-18.31h.93v18.46a18.4 18.4 0 0 1 -.57 4.75z"/><path d="m219.81 111.28-21.34-28.56h-.13v28.56h-.92v-29.74h1.3l21.38 28.52h.13v-28.52h.92v29.74z"/><path d="m254 96.41a16.09 16.09 0 0 1 -1.26 6.66 12.61 12.61 0 0 1 -3.48 4.62 14.74 14.74 0 0 1 -5.22 2.71 23 23 0 0 1 -6.44.88h-8.43v-29.74h8.43a23.42 23.42 0 0 1 6.44.86 14.39 14.39 0 0 1 5.22 2.69 12.6 12.6 0 0 1 3.48 4.64 16.25 16.25 0 0 1 1.26 6.68zm-23.9-14v28.06h7.28a22.64 22.64 0 0 0 6.16-.82 14.06 14.06 0 0 0 5-2.52 11.88 11.88 0 0 0 3.32-4.35 17.14 17.14 0 0 0 0-12.7 11.79 11.79 0 0 0 -3.32-4.37 13.56 13.56 0 0 0 -5-2.5 23 23 0 0 0 -6.16-.8z"/><path d="m281.46 111.28-3.53-8.53h-17.26l-3.67 8.53h-1l12.9-29.74h1.18l12.39 29.74zm-12-29.15-8.46 19.87h16.63z"/><path d="m291.67 82.38v28.9h-.93v-28.9h-10.12v-.84h21.17v.84z"/><path d="m306.16 111.28v-29.74h.92v29.74z"/><path d="m344.29 96.41a16.8 16.8 0 0 1 -1.15 6.32 15.11 15.11 0 0 1 -3.19 5 14.67 14.67 0 0 1 -4.85 3.25 16.31 16.31 0 0 1 -12.18 0 14.47 14.47 0 0 1 -4.85-3.25 15 15 0 0 1 -3.2-5 17.94 17.94 0 0 1 0-12.64 15 15 0 0 1 3.2-5 14.48 14.48 0 0 1 4.83-3.25 16.41 16.41 0 0 1 12.22 0 14.68 14.68 0 0 1 4.88 3.29 15.11 15.11 0 0 1 3.19 5 16.8 16.8 0 0 1 1.1 6.28zm-.92 0a16 16 0 0 0 -1.05-5.82 14.36 14.36 0 0 0 -3-4.72 13.74 13.74 0 0 0 -4.56-3.17 15.06 15.06 0 0 0 -11.59 0 13.84 13.84 0 0 0 -4.56 3.17 14.36 14.36 0 0 0 -3 4.72 16 16 0 0 0 -1.05 5.82 16.42 16.42 0 0 0 1 5.82 14.26 14.26 0 0 0 2.92 4.72 13.46 13.46 0 0 0 4.54 3.17 15.48 15.48 0 0 0 11.76 0 13.52 13.52 0 0 0 4.53-3.17 14.1 14.1 0 0 0 2.92-4.72 16.2 16.2 0 0 0 1.14-5.82z"/><path d="m373.32 111.28-21.32-28.56h-.13v28.56h-.92v-29.74h1.3l21.38 28.52h.13v-28.52h.92v29.74z"/></g></svg>