<svg viewBox="0 0 466.92 128.03" xmlns="http://www.w3.org/2000/svg"><g transform="translate(-32.02 -150.67)"><path d="m39.42 231.82-4.91 4.38a3.32 3.32 0 0 0 -1.07 2.11 6.57 6.57 0 0 0 .35 2.86 13.28 13.28 0 0 0 1.68 3.25 19.38 19.38 0 0 0 2.88 3.23l14.58 13.12z" fill="#2fbdee"/><path d="m40.35 193.17-5.48 1.62a3.42 3.42 0 0 0 -1.93 1.48 6.42 6.42 0 0 0 -.88 2.77 12.48 12.48 0 0 0 .24 3.68 18.61 18.61 0 0 0 1.4 4.17l14.58 31.27z" fill="#313037"/><path d="m90.56 269.44a2.21 2.21 0 0 1 -1.37-.18 3.09 3.09 0 0 1 -1.14-1 5.6 5.6 0 0 1 -.77-1.63 7.82 7.82 0 0 1 -.28-2.12 8.78 8.78 0 0 1 .28-2.2 7.79 7.79 0 0 1 .77-1.88 4.94 4.94 0 0 1 1.14-1.35 2.85 2.85 0 0 1 1.37-.63 2.29 2.29 0 0 1 1.37.23 3.28 3.28 0 0 1 1.1 1 5.5 5.5 0 0 1 .74 1.62 7.78 7.78 0 0 1 .27 2.06 8.94 8.94 0 0 1 -.27 2.16 7.86 7.86 0 0 1 -.77 1.88 5 5 0 0 1 -1.1 1.36 2.91 2.91 0 0 1 -1.37.68m-20.89-10.36a3.32 3.32 0 0 1 -2.31-.57 6.32 6.32 0 0 1 -1.92-2.14 12.63 12.63 0 0 1 -1.31-3.37 18.89 18.89 0 0 1 -.48-4.33v-67a18.71 18.71 0 0 1 .48-4.31 12.21 12.21 0 0 1 1.31-3.36 6 6 0 0 1 1.92-2.09 3.22 3.22 0 0 1 2.31-.49l39.07 6.38a3.06 3.06 0 0 1 1.72 1 7.72 7.72 0 0 1 1.39 2.25 15.38 15.38 0 0 1 .93 3.13 20.9 20.9 0 0 1 .33 3.71v56a20.67 20.67 0 0 1 -.33 3.69 14.81 14.81 0 0 1 -.93 3.11 7.48 7.48 0 0 1 -1.39 2.21 2.91 2.91 0 0 1 -1.72 1l-39.07 5.24m40.76-88-46.35-8.84a3.42 3.42 0 0 0 -2.4.43 5.92 5.92 0 0 0 -2 2.07 11.61 11.61 0 0 0 -1.36 3.4 18.62 18.62 0 0 0 -.5 4.38v94.15a18.68 18.68 0 0 0 .5 4.38 11.84 11.84 0 0 0 1.36 3.4 6 6 0 0 0 2 2.07 3.42 3.42 0 0 0 2.4.43l46.35-8.85a3.14 3.14 0 0 0 1.69-1.06 8.19 8.19 0 0 0 1.37-2.27 15.06 15.06 0 0 0 .91-3.14 20 20 0 0 0 .34-3.7v-76.76a19.77 19.77 0 0 0 -.34-3.69 14.88 14.88 0 0 0 -.91-3.14 8 8 0 0 0 -1.37-2.27 3.16 3.16 0 0 0 -1.69-1.07" fill="#313037"/><path d="m52.38 171.67a33.82 33.82 0 0 1 .95-8.15 21.57 21.57 0 0 1 2.57-6.27 10.6 10.6 0 0 1 3.72-3.73 6.17 6.17 0 0 1 4.43-.66l33.85 7.51a20.48 20.48 0 0 0 -.9-3.37 15.19 15.19 0 0 0 -1.44-2.94 8.27 8.27 0 0 0 -1.74-2 3.14 3.14 0 0 0 -1.86-.76l-47.22-.66a3.45 3.45 0 0 0 -2.29.84 5.94 5.94 0 0 0 -1.6 2.38 11.75 11.75 0 0 0 -.75 3.58 18.75 18.75 0 0 0 .26 4.41l12.05 68.31z" fill="#2fbdee"/><path d="m90.56 258.47a2.85 2.85 0 0 0 -1.37.63 4.94 4.94 0 0 0 -1.14 1.35 7.79 7.79 0 0 0 -.77 1.88 8.78 8.78 0 0 0 -.28 2.2 7.82 7.82 0 0 0 .28 2.12 5.6 5.6 0 0 0 .77 1.63 3.09 3.09 0 0 0 1.14 1 2.21 2.21 0 0 0 1.37.18 2.91 2.91 0 0 0 1.37-.68 5 5 0 0 0 1.07-1.38 7.86 7.86 0 0 0 .74-1.85 8.94 8.94 0 0 0 .27-2.16 7.78 7.78 0 0 0 -.27-2.06 5.5 5.5 0 0 0 -.74-1.62 3.28 3.28 0 0 0 -1.1-1 2.29 2.29 0 0 0 -1.37-.23" fill="#fff"/><path d="m68 252.13a.61.61 0 0 1 -.39-.11 1 1 0 0 1 -.32-.36 2.12 2.12 0 0 1 -.21-.57 3.15 3.15 0 0 1 -.08-.71v-11.51a3.4 3.4 0 0 1 .08-.73 2.49 2.49 0 0 1 .21-.6 1.41 1.41 0 0 1 .32-.42.68.68 0 0 1 .39-.12l8.09-.47a.52.52 0 0 1 .37.12 1.15 1.15 0 0 1 .3.37 2.35 2.35 0 0 1 .2.55 3.14 3.14 0 0 1 .07.7v11.12a3.23 3.23 0 0 1 -.07.71 2.91 2.91 0 0 1 -.2.59 1.74 1.74 0 0 1 -.3.42.71.71 0 0 1 -.37.18l-8.09.89m12.13-1.34a.48.48 0 0 1 -.36-.1.86.86 0 0 1 -.29-.35 2.26 2.26 0 0 1 -.2-.54 3.66 3.66 0 0 1 -.07-.69v-11a3.86 3.86 0 0 1 .07-.7 2.81 2.81 0 0 1 .2-.58 1.38 1.38 0 0 1 .29-.4.65.65 0 0 1 .36-.16l7.45-.43a.48.48 0 0 1 .34.11 1.07 1.07 0 0 1 .28.36 2.35 2.35 0 0 1 .18.53 3.45 3.45 0 0 1 .07.67v10.68a3.64 3.64 0 0 1 -.07.68 2.63 2.63 0 0 1 -.18.56 1.41 1.41 0 0 1 -.28.4.63.63 0 0 1 -.34.18l-7.45.81m11.09-1.21a.5.5 0 0 1 -.33-.1 1.07 1.07 0 0 1 -.27-.34 2.1 2.1 0 0 1 -.18-.52 3.34 3.34 0 0 1 -.07-.66v-10.69a3.62 3.62 0 0 1 .07-.67 2.73 2.73 0 0 1 .18-.55 1.28 1.28 0 0 1 .27-.38.52.52 0 0 1 .33-.16l6.89-.4a.45.45 0 0 1 .32.11 1.15 1.15 0 0 1 .25.34 2.27 2.27 0 0 1 .17.52 3.16 3.16 0 0 1 .06.64v10.27a3.52 3.52 0 0 1 -.06.66 2.63 2.63 0 0 1 -.17.54 1.46 1.46 0 0 1 -.25.39.57.57 0 0 1 -.32.16l-6.89.76m9.94-1.09a.44.44 0 0 1 -.3-.1.8.8 0 0 1 -.25-.33 2.09 2.09 0 0 1 -.17-.5 3.16 3.16 0 0 1 -.06-.64v-10.22a3.31 3.31 0 0 1 .06-.64 2.36 2.36 0 0 1 .17-.53 1 1 0 0 1 .25-.37.51.51 0 0 1 .3-.15l6.41-.38a.48.48 0 0 1 .29.11 1.08 1.08 0 0 1 .24.33 2.68 2.68 0 0 1 .16.5 4 4 0 0 1 0 .62v9.91a4.23 4.23 0 0 1 0 .63 3.33 3.33 0 0 1 -.16.53 1.25 1.25 0 0 1 -.24.36.45.45 0 0 1 -.29.16zm-33.16-14.83a.63.63 0 0 1 -.39-.13 1.22 1.22 0 0 1 -.32-.38 2.19 2.19 0 0 1 -.21-.58 3.24 3.24 0 0 1 -.08-.72v-11.51a3.24 3.24 0 0 1 .08-.72 2.41 2.41 0 0 1 .21-.59 1.31 1.31 0 0 1 .32-.4.64.64 0 0 1 .39-.14h8.09a.59.59 0 0 1 .37.14 1.25 1.25 0 0 1 .3.39 2.53 2.53 0 0 1 .2.57 3 3 0 0 1 .07.69v11.13a3.14 3.14 0 0 1 -.07.7 3 3 0 0 1 -.2.58 1.38 1.38 0 0 1 -.3.39.56.56 0 0 1 -.37.16l-8.09.39m12.13-.58a.54.54 0 0 1 -.36-.12 1.11 1.11 0 0 1 -.29-.37 2.35 2.35 0 0 1 -.2-.55 3.75 3.75 0 0 1 -.07-.69v-11a3.66 3.66 0 0 1 .07-.69 2.53 2.53 0 0 1 .2-.57 1.16 1.16 0 0 1 .29-.38.56.56 0 0 1 .36-.14h7.45a.51.51 0 0 1 .34.14 1.12 1.12 0 0 1 .28.37 2.44 2.44 0 0 1 .18.54 3.62 3.62 0 0 1 .07.67v10.74a3.62 3.62 0 0 1 -.07.67 2.37 2.37 0 0 1 -.18.55 1.5 1.5 0 0 1 -.28.39.58.58 0 0 1 -.34.15l-7.45.35m11.09-.53a.46.46 0 0 1 -.33-.11 1.3 1.3 0 0 1 -.27-.36 2.35 2.35 0 0 1 -.18-.53 3.42 3.42 0 0 1 -.07-.66v-10.64a3.53 3.53 0 0 1 .07-.67 2.63 2.63 0 0 1 .18-.54 1.17 1.17 0 0 1 .27-.36.49.49 0 0 1 .33-.14h6.89a.52.52 0 0 1 .32.13 1.14 1.14 0 0 1 .25.36 2.27 2.27 0 0 1 .17.52 3.34 3.34 0 0 1 .06.65v10.27a3.34 3.34 0 0 1 -.06.65 2.63 2.63 0 0 1 -.17.54 1.27 1.27 0 0 1 -.25.36.56.56 0 0 1 -.32.15l-6.89.32m-23.22-17.33a.57.57 0 0 1 -.38-.15 1.2 1.2 0 0 1 -.32-.4 2.41 2.41 0 0 1 -.22-.59 3.4 3.4 0 0 1 -.08-.73v-11.51a3.31 3.31 0 0 1 .08-.72 2.26 2.26 0 0 1 .22-.57 1.22 1.22 0 0 1 .32-.38.59.59 0 0 1 .38-.14l8.1.54a.54.54 0 0 1 .36.16 1.18 1.18 0 0 1 .3.41 2.19 2.19 0 0 1 .2.58 3.13 3.13 0 0 1 .08.7v11.12a3.13 3.13 0 0 1 -.08.7 2.39 2.39 0 0 1 -.2.57 1.06 1.06 0 0 1 -.3.38.61.61 0 0 1 -.36.13l-8.1-.12m12.11.18a.56.56 0 0 1 -.36-.14 1.32 1.32 0 0 1 -.29-.39 2.53 2.53 0 0 1 -.2-.57 3.75 3.75 0 0 1 -.07-.69v-11a3.66 3.66 0 0 1 .07-.69 2.35 2.35 0 0 1 .2-.55 1 1 0 0 1 .29-.36.49.49 0 0 1 .36-.12l7.45.49a.6.6 0 0 1 .34.16 1.35 1.35 0 0 1 .28.39 2.63 2.63 0 0 1 .18.56 3.45 3.45 0 0 1 .07.67v10.68a3.45 3.45 0 0 1 -.07.67 2.28 2.28 0 0 1 -.18.54 1.24 1.24 0 0 1 -.28.37.5.5 0 0 1 -.34.13l-7.45-.11m-12.11-18.66a.74.74 0 0 1 -.38-.18 1.41 1.41 0 0 1 -.32-.42 2.57 2.57 0 0 1 -.22-.61 3.31 3.31 0 0 1 -.08-.72v-11.51a3.24 3.24 0 0 1 .08-.72 2.18 2.18 0 0 1 .22-.56 1 1 0 0 1 .32-.36.57.57 0 0 1 .38-.09l8.1 1a.62.62 0 0 1 .36.18 1.27 1.27 0 0 1 .3.43 2.4 2.4 0 0 1 .2.59 3.22 3.22 0 0 1 .08.71v11.12a3 3 0 0 1 -.08.69 2.17 2.17 0 0 1 -.2.56 1.07 1.07 0 0 1 -.3.36.53.53 0 0 1 -.36.11l-8.1-.62m40.72-18.94-39.07-6.38a3.22 3.22 0 0 0 -2.31.49 6 6 0 0 0 -1.93 2.14 12.21 12.21 0 0 0 -1.31 3.37 18.71 18.71 0 0 0 -.48 4.31v67a18.89 18.89 0 0 0 .48 4.32 12.63 12.63 0 0 0 1.31 3.41 6.32 6.32 0 0 0 1.92 2.14 3.32 3.32 0 0 0 2.31.57l39.07-5.24a2.91 2.91 0 0 0 1.72-1 7.48 7.48 0 0 0 1.39-2.21 14.81 14.81 0 0 0 .93-3.11 20.67 20.67 0 0 0 .33-3.69v-56a20.9 20.9 0 0 0 -.33-3.71 15.38 15.38 0 0 0 -.93-3.13 7.72 7.72 0 0 0 -1.39-2.25 3.06 3.06 0 0 0 -1.72-1" fill="#fff"/><path d="m76.09 182.6-8.1-1a.57.57 0 0 0 -.38.09 1 1 0 0 0 -.32.36 2.18 2.18 0 0 0 -.22.56 3.24 3.24 0 0 0 -.08.72v11.47a3.31 3.31 0 0 0 .08.72 2.57 2.57 0 0 0 .22.61 1.41 1.41 0 0 0 .32.42.74.74 0 0 0 .38.18l8.1.62a.53.53 0 0 0 .36-.11 1.07 1.07 0 0 0 .3-.36 2.17 2.17 0 0 0 .2-.56 3 3 0 0 0 .08-.69v-11.12a3.22 3.22 0 0 0 -.08-.71 2.4 2.4 0 0 0 -.2-.59 1.27 1.27 0 0 0 -.3-.43.62.62 0 0 0 -.36-.18" fill="#f15535"/><path d="m76.09 200.56-8.09-.56a.59.59 0 0 0 -.38.12 1.22 1.22 0 0 0 -.32.38 2.26 2.26 0 0 0 -.22.57 3.31 3.31 0 0 0 -.08.72v11.51a3.4 3.4 0 0 0 .08.73 2.41 2.41 0 0 0 .22.59 1.2 1.2 0 0 0 .32.4.57.57 0 0 0 .38.15l8.1.12a.61.61 0 0 0 .36-.13 1.06 1.06 0 0 0 .3-.38 2.39 2.39 0 0 0 .2-.57 3.13 3.13 0 0 0 .08-.7v-11.1a3.13 3.13 0 0 0 -.08-.7 2.19 2.19 0 0 0 -.2-.58 1.18 1.18 0 0 0 -.3-.41.54.54 0 0 0 -.36-.16" fill="#f15535"/><path d="m87.55 201.31-7.45-.49a.49.49 0 0 0 -.36.12 1 1 0 0 0 -.29.36 2.35 2.35 0 0 0 -.2.55 3.66 3.66 0 0 0 -.07.69v11a3.75 3.75 0 0 0 .07.69 2.53 2.53 0 0 0 .2.57 1.32 1.32 0 0 0 .29.39.56.56 0 0 0 .36.14l7.45.11a.5.5 0 0 0 .34-.13 1.24 1.24 0 0 0 .28-.37 2.28 2.28 0 0 0 .18-.54 3.45 3.45 0 0 0 .07-.67v-10.64a3.45 3.45 0 0 0 -.07-.67 2.63 2.63 0 0 0 -.18-.56 1.35 1.35 0 0 0 -.28-.39.6.6 0 0 0 -.34-.16" fill="#f15535"/><path d="m76.06 218.52h-8.09a.64.64 0 0 0 -.39.14 1.31 1.31 0 0 0 -.32.4 2.41 2.41 0 0 0 -.21.59 3.24 3.24 0 0 0 -.08.72v11.51a3.24 3.24 0 0 0 .08.72 2.19 2.19 0 0 0 .21.58 1.22 1.22 0 0 0 .32.38.63.63 0 0 0 .39.13l8.09-.39a.56.56 0 0 0 .37-.16 1.38 1.38 0 0 0 .3-.39 3 3 0 0 0 .2-.58 3.14 3.14 0 0 0 .07-.7v-11.16a3 3 0 0 0 -.07-.69 2.53 2.53 0 0 0 -.2-.57 1.25 1.25 0 0 0 -.3-.39.59.59 0 0 0 -.37-.14" fill="#f15535"/><path d="m87.55 218.56h-7.45a.56.56 0 0 0 -.36.14 1.16 1.16 0 0 0 -.29.38 2.53 2.53 0 0 0 -.2.57 3.66 3.66 0 0 0 -.07.69v11a3.75 3.75 0 0 0 .07.69 2.35 2.35 0 0 0 .2.55 1.11 1.11 0 0 0 .29.37.54.54 0 0 0 .36.12l7.45-.35a.58.58 0 0 0 .34-.15 1.5 1.5 0 0 0 .28-.39 2.37 2.37 0 0 0 .18-.55 3.62 3.62 0 0 0 .07-.67v-10.68a3.62 3.62 0 0 0 -.07-.67 2.44 2.44 0 0 0 -.18-.54 1.12 1.12 0 0 0 -.28-.37.51.51 0 0 0 -.34-.14" fill="#f15535"/><path d="m98.08 218.6h-6.89a.49.49 0 0 0 -.33.14 1.17 1.17 0 0 0 -.27.36 2.63 2.63 0 0 0 -.18.54 3.53 3.53 0 0 0 -.07.67v10.61a3.42 3.42 0 0 0 .07.66 2.35 2.35 0 0 0 .18.53 1.3 1.3 0 0 0 .27.36.46.46 0 0 0 .33.11l6.89-.32a.56.56 0 0 0 .32-.15 1.27 1.27 0 0 0 .25-.36 2.63 2.63 0 0 0 .17-.54 3.34 3.34 0 0 0 .06-.65v-10.3a3.34 3.34 0 0 0 -.06-.65 2.27 2.27 0 0 0 -.17-.52 1.14 1.14 0 0 0 -.25-.36.52.52 0 0 0 -.32-.13" fill="#f15535"/><path d="m76.06 236.48-8.06.52a.68.68 0 0 0 -.39.17 1.41 1.41 0 0 0 -.32.42 2.49 2.49 0 0 0 -.21.6 3.4 3.4 0 0 0 -.08.73v11.51a3.15 3.15 0 0 0 .08.71 2.12 2.12 0 0 0 .21.57 1 1 0 0 0 .32.36.61.61 0 0 0 .39.11l8.09-.89a.71.71 0 0 0 .37-.18 1.74 1.74 0 0 0 .3-.42 2.91 2.91 0 0 0 .2-.59 3.23 3.23 0 0 0 .07-.71v-11.17a3.14 3.14 0 0 0 -.07-.7 2.35 2.35 0 0 0 -.2-.55 1.15 1.15 0 0 0 -.3-.37.52.52 0 0 0 -.37-.12" fill="#f15535"/><path d="m87.55 235.81-7.45.43a.65.65 0 0 0 -.36.16 1.38 1.38 0 0 0 -.29.4 2.81 2.81 0 0 0 -.2.58 3.86 3.86 0 0 0 -.07.7v11a3.66 3.66 0 0 0 .07.69 2.26 2.26 0 0 0 .2.54.86.86 0 0 0 .29.35.48.48 0 0 0 .36.1l7.45-.81a.63.63 0 0 0 .34-.18 1.41 1.41 0 0 0 .28-.4 2.63 2.63 0 0 0 .18-.56 3.64 3.64 0 0 0 .07-.68v-10.65a3.45 3.45 0 0 0 -.07-.67 2.35 2.35 0 0 0 -.18-.53 1.07 1.07 0 0 0 -.28-.36.48.48 0 0 0 -.34-.11" fill="#f15535"/><path d="m98.08 235.19-6.89.4a.52.52 0 0 0 -.33.16 1.28 1.28 0 0 0 -.27.38 2.73 2.73 0 0 0 -.18.55 3.62 3.62 0 0 0 -.07.67v10.65a3.34 3.34 0 0 0 .07.66 2.1 2.1 0 0 0 .18.52 1.07 1.07 0 0 0 .27.34.5.5 0 0 0 .33.1l6.89-.76a.57.57 0 0 0 .32-.16 1.46 1.46 0 0 0 .25-.39 2.63 2.63 0 0 0 .17-.54 3.52 3.52 0 0 0 .06-.66v-10.31a3.16 3.16 0 0 0 -.06-.64 2.27 2.27 0 0 0 -.17-.52 1.15 1.15 0 0 0 -.25-.34.45.45 0 0 0 -.32-.11" fill="#f15535"/><path d="m107.54 234.63-6.41.38a.51.51 0 0 0 -.3.15 1 1 0 0 0 -.25.37 2.36 2.36 0 0 0 -.17.53 3.31 3.31 0 0 0 -.06.64v10.22a3.16 3.16 0 0 0 .06.64 2.09 2.09 0 0 0 .17.5.8.8 0 0 0 .25.33.44.44 0 0 0 .3.1l6.41-.71a.45.45 0 0 0 .29-.16 1.25 1.25 0 0 0 .24-.36 3.33 3.33 0 0 0 .16-.53 4.23 4.23 0 0 0 0-.63v-9.91a4 4 0 0 0 0-.62 2.68 2.68 0 0 0 -.16-.5 1.08 1.08 0 0 0 -.24-.33.48.48 0 0 0 -.29-.11" fill="#f15535"/></g><text fill="#231f20" font-family="AvenirNext-Medium, Avenir Next" font-size="48" font-weight="500" letter-spacing="-.02em" transform="translate(109.69 59.82)">MOBILE N<tspan letter-spacing="-.08em" x="222.67" y="0">A</tspan><tspan x="252.96" y="0">TIVE</tspan><tspan font-family="AvenirNext-UltraLight, Avenir Next" font-size="42" font-weight="100" letter-spacing="-.02em"><tspan x="0" y="50">FOUN</tspan><tspan letter-spacing="-.04em" x="120.16" y="50">D</tspan><tspan letter-spacing="-.08em" x="150.65" y="50">A</tspan><tspan x="175.27" y="50">TION</tspan></tspan></text></svg>